<svg id="Capa_1" enable-background="new 0 0 512 512" height="512" viewBox="0 0 512 512" width="512" xmlns="http://www.w3.org/2000/svg"><g><path d="m512 360.999h-60v-15c0-8.271 6.727-15 15-15h15v-30c-8.176 0-15.357 0-23.377 0-6.445 0-12.147-4.095-14.21-10.196l-9.507-29.521c-10.225-30.674-38.818-51.283-71.151-51.283h-92.755v-30h30v-30h-90v30h30v30h-92.754c-32.333 0-60.927 20.609-71.151 51.283l-9.507 29.521c-2.063 6.101-7.765 10.196-14.21 10.196-8.602 0-14.741 0-23.377 0v30h15.005c8.268 0 14.995 6.729 14.995 15v15h-60.001v30h60v121h392v-121h60zm-415.932-60.77 9.508-29.526c6.153-18.369 23.292-30.705 42.669-30.705h215.509c19.377 0 36.516 12.335 42.669 30.705 0 0 9.691 30.039 9.782 30.295h-320.41c.09-.256.187-.51.273-.769zm325.932 181.77h-332v-136c0-5.258-.915-10.305-2.58-15.01h337.16c-1.665 4.705-2.58 9.752-2.58 15.01z"/><path d="m265 24.001-18-24c-13.513 10.135-20.42 20.572-21.117 31.909-.982 15.982 10.495 27.026 19.716 35.899 3.634 3.498 10.398 10.007 10.574 12.442-.003.031-.662 3.366-9.173 9.75l18 24c13.513-10.135 20.42-20.572 21.117-31.909.982-15.982-10.495-27.026-19.716-35.899-3.634-3.498-10.398-10.007-10.574-12.442.003-.031.662-3.366 9.173-9.75z"/><path d="m175 24.001-18-24c-13.513 10.135-20.42 20.572-21.117 31.909-.982 15.982 10.495 27.026 19.716 35.899 3.634 3.498 10.398 10.007 10.574 12.442-.003.031-.662 3.366-9.173 9.75l18 24c13.513-10.135 20.42-20.572 21.117-31.909.982-15.982-10.495-27.026-19.716-35.899-3.634-3.498-10.398-10.007-10.574-12.442.003-.031.662-3.366 9.173-9.75z"/><path d="m355 24.001-18-24c-13.513 10.135-20.42 20.572-21.117 31.909-.982 15.982 10.495 27.026 19.716 35.899 3.634 3.498 10.398 10.007 10.574 12.442-.003.031-.662 3.366-9.173 9.75l18 24c13.513-10.135 20.42-20.572 21.117-31.909.982-15.982-10.495-27.026-19.716-35.899-3.634-3.498-10.398-10.007-10.574-12.442.003-.031.662-3.366 9.173-9.75z"/></g></svg>