<?xml version="1.0" encoding="iso-8859-1"?>
<!-- Generator: Adobe Illustrator 19.0.0, SVG Export Plug-In . SVG Version: 6.00 Build 0)  -->
<svg version="1.1" id="Capa_1" xmlns="http://www.w3.org/2000/svg" xmlns:xlink="http://www.w3.org/1999/xlink" x="0px" y="0px"
	 viewBox="0 0 512.002 512.002" style="enable-background:new 0 0 512.002 512.002;" xml:space="preserve">
<g>
	<g>
		<path d="M508.689,249.329c-0.683-1.376-17.07-34.068-47.416-67.034c-41.182-44.739-88.527-68.385-136.918-68.385
			c-6.843,0-13.762,0.384-20.723,1.09c-13.439-37.716-55.018-57.541-92.792-44.195l-71.687,25.323l24.381,69.021
			c-25.239,14.797-47.137,30.804-63.182,45.116c-12.802-30.396-42.893-51.792-77.891-51.792H0v72.864
			c0,9.314,3.226,17.888,8.62,24.664C3.226,262.777,0,271.351,0,280.665v72.864h22.463c34.998,0,65.089-21.396,77.891-51.792
			c16.045,14.312,37.943,30.319,63.182,45.116l-24.381,69.021l71.687,25.323c7.988,2.821,16.146,4.161,24.174,4.161
			c29.93-0.001,58.023-18.615,68.619-48.355c6.96,0.705,13.88,1.089,20.722,1.089c48.39,0,95.735-23.647,136.918-68.385
			c30.346-32.966,46.733-65.658,47.416-67.034l3.311-6.672L508.689,249.329z M76.925,269.055c0,27.47-20.441,50.254-46.913,53.94
			v-42.33c0-5.325,4.333-9.658,9.659-9.658h6.612v-30.012h-6.612c-5.326,0-9.659-4.333-9.659-9.658v-42.33
			c26.472,3.686,46.913,26.471,46.913,53.94V269.055z M220.837,99.104c20.45-7.223,42.79,2.103,52.357,20.946
			c-28.478,6.467-56.863,17.517-82.953,30.591l-12.792-36.211L220.837,99.104z M220.837,412.898l-43.388-15.326l12.791-36.211
			c26.09,13.074,54.475,24.125,82.953,30.591C263.628,410.796,241.29,420.124,220.837,412.898z M324.357,368.08
			c-38.076,0-85.168-14.102-132.601-39.707c-40.199-21.701-70.602-46.068-84.82-62.235v-20.275
			c14.217-16.166,44.621-40.535,84.82-62.235c47.434-25.605,94.525-39.706,132.6-39.706c10.111,0,20.115,1.245,29.996,3.717
			c-21.757,31.476-33.551,69.216-33.551,108.361s11.795,76.885,33.552,108.361C344.472,366.837,334.468,368.08,324.357,368.08z
			 M438.685,309.93c-17.781,19.208-36.243,33.699-55.254,43.413c-21.105-27.618-32.619-61.774-32.619-97.342
			c0-35.568,11.514-69.725,32.619-97.342c19.011,9.714,37.473,24.205,55.254,43.413c19.89,21.486,33.413,43.289,39.485,53.928
			C472.094,266.647,458.572,288.447,438.685,309.93z"/>
	</g>
</g>
<g>
	<g>
		<circle cx="404.911" cy="229.852" r="15.006"/>
	</g>
</g>
<g>
</g>
<g>
</g>
<g>
</g>
<g>
</g>
<g>
</g>
<g>
</g>
<g>
</g>
<g>
</g>
<g>
</g>
<g>
</g>
<g>
</g>
<g>
</g>
<g>
</g>
<g>
</g>
<g>
</g>
</svg>
