<svg id="Capa_1" enable-background="new 0 0 512 512" height="512" viewBox="0 0 512 512" width="512" xmlns="http://www.w3.org/2000/svg"><g><path d="m316 212h-120c-8.284 0-15 6.716-15 15v180c0 8.284 6.716 15 15 15h120c8.284 0 15-6.716 15-15v-180c0-8.284-6.716-15-15-15zm-15 180h-90v-150h90z"/><circle cx="256" cy="287" r="15"/><circle cx="256" cy="347" r="15"/><path d="m497 152h-47.076c-7.301-50.817-51.12-90-103.924-90h-15v-47c0-8.284-6.716-15-15-15h-120c-8.284 0-15 6.716-15 15v47h-15c-52.804 0-96.623 39.183-103.924 90h-47.076c-8.284 0-15 6.716-15 15v41.459c0 17.155 9.532 32.577 24.875 40.249.041.021 36.125 17.657 36.125 17.657v140.635c0 36.219 25.808 66.522 60 73.491v16.509c0 8.284 6.716 15 15 15s15-6.716 15-15v-15h210v15c0 8.284 6.716 15 15 15s15-6.716 15-15v-16.509c34.192-6.968 60-37.271 60-73.491v-140.635s36.084-17.636 36.125-17.656c15.343-7.673 24.875-23.095 24.875-40.25v-41.459c0-8.284-6.716-15-15-15zm-286-122h90v32h-90zm-45 62h180c36.219 0 66.522 25.808 73.491 60h-326.982c6.969-34.192 37.272-60 73.491-60zm-127.759 129.85c-5.085-2.566-8.241-7.692-8.241-13.391v-26.459h31v50.973zm337.759 230.15h-240c-24.813 0-45-20.187-45-45v-225h330v225c0 24.813-20.187 45-45 45zm106-243.541c0 5.699-3.156 10.825-8.241 13.391l-22.759 11.123v-50.973h31z"/></g></svg>