<svg id="Layer_1" enable-background="new 0 0 512 512" height="512" viewBox="0 0 512 512" width="512" xmlns="http://www.w3.org/2000/svg"><g><path d="m512 191.798c0-8.284-6.716-15-15-15h-64.267c-14.543 0-28.487 3.89-40.645 11.176-14.172-5.997-29.055-9.616-44.473-10.802-27.288-30.99-66.153-48.638-107.747-48.638-42.284 0-80.784 18.147-107.64 48.637-73.604 5.666-132.228 67.126-132.228 143.032v.016c0 .019.003.037.003.056s-.003.037-.003.056c0 66.045 49.913 119.157 112.467 126.303v50.366c0 8.284 6.716 15 15 15h257.066c8.284 0 15-6.716 15-15v-50.365c62.567-7.149 112.467-60.279 112.467-126.304v-.008c0-8.284-6.716-15-15-15h-2.18c11.124-13.964 17.18-31.142 17.18-49.258zm-144.517 19.257c-6.655 9.606-11.062 20.508-12.949 32.059-5.942-1.396-12.06-2.113-18.232-2.113-22.08 0-43.562 9.019-59.233 26.626-4.43-11.196-10.236-21.702-17.197-31.319 20.939-19.109 47.867-29.574 76.462-29.574 10.695 0 21.111 1.456 31.149 4.321zm-14.016 63.029v31.239h-64.1c3.514-11.1 17.114-34.323 46.982-34.323 5.875 0 11.671 1.07 17.118 3.084zm-113.534-115.551c24.183 0 47.22 7.569 66.31 21.339-24.64 5.221-47.443 16.855-66.385 34.082-18.401-16.684-41.141-28.664-66.306-34.045 19.19-13.879 42.188-21.376 66.381-21.376zm-96.4 48.201c57.537 0 105.211 43.024 112.549 98.589h-34.715c-7.011-36.585-39.239-64.323-77.866-64.323-31.073 0-69.578 20.804-77.827 64.323h-34.706c7.187-55.202 54.37-98.589 112.565-98.589zm46.943 98.589h-93.909c3.513-11.094 17.117-34.323 46.966-34.323 21.957 0 40.6 14.442 46.943 34.323zm179.057 176.677h-227.066v-34.211h227.066zm15.322-64.524h-257.709c-49.158 0-88.925-36.209-96.002-82.153h449.714c-7.092 46.045-46.939 82.153-96.003 82.153zm97.145-161.411c0 26.768-21.638 49.267-49.267 49.267h-28.053l38.66-38.66c5.858-5.858 5.858-15.355 0-21.213-5.857-5.858-15.355-5.858-21.213 0l-38.66 38.66v-28.054c0-27.255 22.052-49.267 49.267-49.267h49.266z"/><path d="m165.061 68.66c-5.858 5.858-5.859 15.355-.001 21.213 5.856 5.857 15.354 5.86 21.213.001 7.128-7.127 11.054-16.601 11.054-26.674 0-10.074-3.926-19.547-11.053-26.673-3.026-3.026-3.021-7.899 0-10.92 5.858-5.858 5.858-15.355 0-21.213-5.857-5.858-15.355-5.858-21.213 0-7.128 7.127-11.053 16.6-11.053 26.673s3.925 19.545 11.054 26.674c3.023 3.024 3.02 7.898-.001 10.919z"/><path d="m245.395 68.66c-5.858 5.858-5.859 15.355-.001 21.213 5.856 5.857 15.354 5.86 21.213.001 7.128-7.127 11.054-16.601 11.054-26.674 0-10.074-3.926-19.547-11.053-26.673-3.026-3.026-3.021-7.899 0-10.92 5.858-5.858 5.858-15.355 0-21.213-5.857-5.858-15.355-5.858-21.213 0-7.128 7.127-11.053 16.6-11.053 26.673s3.925 19.545 11.054 26.674c3.023 3.024 3.02 7.898-.001 10.919z"/><path d="m325.728 68.66c-5.858 5.858-5.859 15.355-.001 21.213 5.856 5.857 15.354 5.86 21.213.001 7.128-7.127 11.054-16.601 11.054-26.674 0-10.074-3.926-19.547-11.053-26.673-3.026-3.026-3.021-7.899 0-10.92 5.858-5.858 5.858-15.355 0-21.213-5.857-5.858-15.355-5.858-21.213 0-7.128 7.127-11.053 16.6-11.053 26.673s3.925 19.545 11.054 26.674c3.024 3.024 3.021 7.898-.001 10.919z"/></g></svg>