<svg id="Capa_1" enable-background="new 0 0 512.075 512.075" height="512" viewBox="0 0 512.075 512.075" width="512" xmlns="http://www.w3.org/2000/svg"><g><path d="m512.004 267.968c-.201-30.82-12.258-59.768-34.102-81.511-21.84-21.739-50.836-33.744-81.651-33.807l-66.96-.202c-25.78-54.859-80.144-91.517-141.208-94.337-8.873-.41-17.477-.591-25.57-.538-90.321.589-163.099 74.549-162.509 164.87.001.164 0 69.332 0 69.332.589 90.32 74.777 163.322 165.024 162.733 0 0 232.018-.377 232.213-.378 30.892-.201 59.865-12.379 81.637-34.329 21.91-22.089 33.329-51.388 33.126-82.5 0-.001.161-44.631 0-69.333zm-115.398 156.164-231.701.376c-63.631.415-117.314-43.886-131.189-103.41 30.19 39.226 77.695 64.425 130.859 64.078 0 0 232.019-.377 232.214-.378 30.892-.201 59.864-12.379 81.636-34.329 1.266-1.277 2.496-2.58 3.695-3.904-1.913 19.651-10.443 37.894-24.542 52.108-16.247 16.38-37.878 25.451-60.972 25.459zm-181.207-331.571-89.643 88.718c-10.725 10.394-17.373 24.962-17.268 41.041.204 31.245 25.789 56.5 57.035 56.296 31.245-.204 56.499-25.79 56.296-57.035-.165-25.258-16.919-46.593-39.838-53.738l63.659-63.002c26.707 14.831 48.179 38.608 59.838 68.094l3.739 9.453 86.943.263h.017c16.996.032 33.243 4.972 47.119 14.129l-89.086 90.255 21.351 21.074 89.555-90.731c10.897 14.605 16.851 32.238 16.972 50.785.15 23.071-8.714 44.797-24.962 61.178-16.247 16.38-37.922 25.451-60.971 25.458l-142.474.232 81.844-82.918-21.351-21.074-102.713 104.061-47.008.076c-46.308.302-87.347-23.081-111.61-58.777l32.303-30.926-20.746-21.67-25.984 24.877c-5.479-14.452-8.53-30.095-8.637-46.433-.482-73.779 59.148-134.675 132.929-134.675 26.629 0 43.427 2.489 52.691 4.989zm-50.42 102.723c14.704-.096 26.744 11.788 26.84 26.492s-11.788 26.745-26.492 26.84c-14.704.096-26.744-11.789-26.84-26.493-.096-14.703 11.788-26.743 26.492-26.839z"/></g></svg>