<?xml version="1.0" encoding="iso-8859-1"?>
<!-- Generator: Adobe Illustrator 19.0.0, SVG Export Plug-In . SVG Version: 6.00 Build 0)  -->
<svg version="1.1" id="Capa_1" xmlns="http://www.w3.org/2000/svg" xmlns:xlink="http://www.w3.org/1999/xlink" x="0px" y="0px"
	 viewBox="0 0 512 512" style="enable-background:new 0 0 512 512;" xml:space="preserve">
<g>
	<g>
		<path d="M448.799,96.399h-81.4V30h1.066c8.284,0,15-6.716,15-15s-6.716-15-15-15H352.4H79.266H63.2c-8.284,0-15,6.716-15,15
			s6.716,15,15,15h1.066v242.066c0,1.227,0.15,2.448,0.448,3.638l15.62,62.476V497c0,8.284,6.716,15,15,15h241
			c8.284,0,15-6.716,15-15V338.18l15.619-62.476c0.297-1.19,0.448-2.412,0.448-3.638V126.399h66.4v209.934c0,8.284,6.716,15,15,15
			s15-6.716,15-15V111.399C463.799,103.115,457.085,96.399,448.799,96.399z M321.333,482h-211V351.333h211V482z M337.4,270.22
			l-12.778,51.113H107.045L94.266,270.22V126.4H337.4V270.22z M337.4,96.399H94.266V30H337.4V96.399z"/>
	</g>
</g>
<g>
</g>
<g>
</g>
<g>
</g>
<g>
</g>
<g>
</g>
<g>
</g>
<g>
</g>
<g>
</g>
<g>
</g>
<g>
</g>
<g>
</g>
<g>
</g>
<g>
</g>
<g>
</g>
<g>
</g>
</svg>
